<mxfile host="Electron" modified="2024-06-12T10:15:23.251Z" agent="Mozilla/5.0 (Macintosh; Intel Mac OS X 10_15_7) AppleWebKit/537.36 (KHTML, like Gecko) draw.io/21.4.0 Chrome/112.0.5615.204 Electron/24.5.1 Safari/537.36" etag="Ge7NZH6a1GDv8gV0ZLr6" version="21.4.0" type="device">
  <diagram name="Page-1" id="QZLiJsWQgRQz47m2rBQ1">
    <mxGraphModel dx="591" dy="394" grid="1" gridSize="10" guides="1" tooltips="1" connect="1" arrows="1" fold="1" page="1" pageScale="1" pageWidth="827" pageHeight="1169" math="0" shadow="0">
      <root>
        <mxCell id="0" />
        <mxCell id="1" parent="0" />
        <mxCell id="liwXY1tiQhk1vAR_yW3X-5" value="" style="rounded=0;whiteSpace=wrap;html=1;fillColor=#fff2cc;strokeColor=#d6b656;" vertex="1" parent="1">
          <mxGeometry x="90" y="290" width="240" height="130" as="geometry" />
        </mxCell>
        <mxCell id="liwXY1tiQhk1vAR_yW3X-4" style="edgeStyle=orthogonalEdgeStyle;rounded=0;orthogonalLoop=1;jettySize=auto;html=1;" edge="1" parent="1" source="liwXY1tiQhk1vAR_yW3X-1" target="liwXY1tiQhk1vAR_yW3X-2">
          <mxGeometry relative="1" as="geometry" />
        </mxCell>
        <mxCell id="liwXY1tiQhk1vAR_yW3X-1" value="httpd" style="rounded=0;whiteSpace=wrap;html=1;fillColor=#d5e8d4;strokeColor=#82b366;" vertex="1" parent="1">
          <mxGeometry x="105" y="310" width="205" height="40" as="geometry" />
        </mxCell>
        <mxCell id="liwXY1tiQhk1vAR_yW3X-2" value="/usr/local/apache2/htdocs/index.html" style="rounded=0;whiteSpace=wrap;html=1;fillColor=#f5f5f5;fontColor=#333333;strokeColor=#666666;fontStyle=1;fontSize=9;" vertex="1" parent="1">
          <mxGeometry x="107.5" y="370" width="200" height="30" as="geometry" />
        </mxCell>
        <mxCell id="liwXY1tiQhk1vAR_yW3X-6" value="80" style="ellipse;whiteSpace=wrap;html=1;aspect=fixed;fillColor=#d80073;fontColor=#ffffff;strokeColor=#A50040;" vertex="1" parent="1">
          <mxGeometry x="190" y="280" width="40" height="40" as="geometry" />
        </mxCell>
        <mxCell id="liwXY1tiQhk1vAR_yW3X-7" value="container" style="text;html=1;strokeColor=none;fillColor=none;align=center;verticalAlign=middle;whiteSpace=wrap;rounded=0;fontStyle=1;fontSize=16;" vertex="1" parent="1">
          <mxGeometry x="90" y="420" width="240" height="30" as="geometry" />
        </mxCell>
        <mxCell id="liwXY1tiQhk1vAR_yW3X-11" style="edgeStyle=orthogonalEdgeStyle;rounded=0;orthogonalLoop=1;jettySize=auto;html=1;entryX=1;entryY=0.5;entryDx=0;entryDy=0;exitX=0.5;exitY=0;exitDx=0;exitDy=0;" edge="1" parent="1" source="liwXY1tiQhk1vAR_yW3X-8" target="liwXY1tiQhk1vAR_yW3X-9">
          <mxGeometry relative="1" as="geometry" />
        </mxCell>
        <mxCell id="liwXY1tiQhk1vAR_yW3X-8" value="" style="rounded=0;whiteSpace=wrap;html=1;fillColor=#dae8fc;strokeColor=#6c8ebf;" vertex="1" parent="1">
          <mxGeometry x="370" y="290" width="120" height="210" as="geometry" />
        </mxCell>
        <mxCell id="liwXY1tiQhk1vAR_yW3X-10" style="edgeStyle=orthogonalEdgeStyle;rounded=0;orthogonalLoop=1;jettySize=auto;html=1;entryX=0.5;entryY=0;entryDx=0;entryDy=0;" edge="1" parent="1" source="liwXY1tiQhk1vAR_yW3X-9" target="liwXY1tiQhk1vAR_yW3X-6">
          <mxGeometry relative="1" as="geometry" />
        </mxCell>
        <mxCell id="liwXY1tiQhk1vAR_yW3X-9" value="8000" style="rounded=0;whiteSpace=wrap;html=1;fillColor=#1ba1e2;fontColor=#ffffff;strokeColor=#006EAF;fontStyle=1;fontSize=14;" vertex="1" parent="1">
          <mxGeometry x="300" y="210" width="60" height="40" as="geometry" />
        </mxCell>
        <mxCell id="liwXY1tiQhk1vAR_yW3X-12" value="http://localhost:80" style="rounded=0;whiteSpace=wrap;html=1;fontSize=11;" vertex="1" parent="1">
          <mxGeometry x="370" y="290" width="120" height="20" as="geometry" />
        </mxCell>
        <mxCell id="liwXY1tiQhk1vAR_yW3X-13" value="R" style="ellipse;whiteSpace=wrap;html=1;" vertex="1" parent="1">
          <mxGeometry x="415" y="340" width="30" height="20" as="geometry" />
        </mxCell>
        <mxCell id="liwXY1tiQhk1vAR_yW3X-14" value="Operating Systtem" style="rounded=0;whiteSpace=wrap;html=1;fillColor=#f8cecc;strokeColor=#b85450;" vertex="1" parent="1">
          <mxGeometry x="90" y="510" width="400" height="30" as="geometry" />
        </mxCell>
        <mxCell id="liwXY1tiQhk1vAR_yW3X-15" value="Docker" style="rounded=0;whiteSpace=wrap;html=1;fillColor=#e1d5e7;strokeColor=#9673a6;" vertex="1" parent="1">
          <mxGeometry x="90" y="470" width="240" height="30" as="geometry" />
        </mxCell>
      </root>
    </mxGraphModel>
  </diagram>
</mxfile>
